<svg width="56" height="56" viewBox="0 0 56 56" fill="none" xmlns="http://www.w3.org/2000/svg">
<path d="M50 42.5612V28.8696C50 27.1357 49.3107 25.4758 48.0783 24.2599L32.4334 8.82379C29.9687 6.39207 26.0313 6.39207 23.5666 8.82379L7.92167 24.2599C6.6893 25.4758 6 27.1357 6 28.8696V42.5612C6 46.1137 8.84073 49 12.3603 49H43.6501C47.1593 49 50 46.1242 50 42.5612Z" fill="#7E22CE"></path>
<path d="M25.0986 32.8932C26.1939 32.8932 26.9494 33.264 27.3535 33.8903L27.5127 33.0729H30.2031V40.7477H27.5547L27.4277 39.9196C26.7684 40.6625 25.7471 40.9278 24.8857 40.8854C22.6316 40.7473 21.3662 39.1444 21.3662 36.9049C21.3662 34.6335 22.8656 32.8933 25.0986 32.8932ZM34.7432 33.7204H34.7539C35.1793 33.2111 35.9029 32.8932 36.8916 32.8932C39.135 32.8934 40.624 34.5594 40.624 36.9049C40.624 39.3249 39.3579 40.7474 37.1035 40.8854C36.2423 40.9278 35.2217 40.6623 34.5625 39.9196L34.4346 40.7477H31.8828V29.8678H34.7432V33.7204ZM44.7812 33.1901V40.7477H41.9004V33.1901H44.7812ZM15.1562 33.8903C15.6985 33.19 16.2938 32.8933 17.208 32.8932C18.7605 32.8932 20.2284 33.9011 20.2285 36.4801V40.737H17.3779V36.4909C17.346 35.6207 16.9101 35.3551 16.3359 35.3551C15.7724 35.3553 15.156 35.7801 15.1348 36.6715V40.7262H12.2529V29.8678H15.1562V33.8903ZM36.2314 35.2174C35.2215 35.2176 34.6904 36.056 34.6904 36.9899C34.6904 37.7964 35.264 38.5922 36.2314 38.5924C37.0928 38.5924 37.7734 37.9877 37.7734 36.9157C37.7734 35.8436 37.0928 35.2174 36.2314 35.2174ZM25.7686 35.2067C24.9179 35.2173 24.2266 35.8329 24.2266 36.9049C24.2266 37.9769 24.9073 38.5816 25.7686 38.5817C26.7362 38.5817 27.3535 37.8071 27.3535 36.9049C27.3535 35.8753 26.7788 35.2067 25.7686 35.2067Z" fill="white"></path>
<path d="M43.3883 15.6027C44.5746 15.6027 45.5363 14.6428 45.5363 13.4587C45.5363 12.2745 44.5746 11.3146 43.3883 11.3146C42.2019 11.3146 41.2402 12.2745 41.2402 13.4587C41.2402 14.6428 42.2019 15.6027 43.3883 15.6027Z" fill="#F45201"></path>
</svg>